<mxfile host="app.diagrams.net" modified="2021-07-23T17:27:16.956Z" agent="5.0 (Windows NT 10.0; Win64; x64) AppleWebKit/537.36 (KHTML, like Gecko) Chrome/91.0.4472.164 Safari/537.36" etag="9wyS8TNuM7EIG3OuRXLE" version="14.8.5" type="github">
  <diagram id="C5RBs43oDa-KdzZeNtuy" name="Page-1">
    <mxGraphModel dx="2048" dy="644" grid="1" gridSize="10" guides="1" tooltips="1" connect="1" arrows="1" fold="1" page="1" pageScale="1" pageWidth="827" pageHeight="1169" math="0" shadow="0">
      <root>
        <mxCell id="WIyWlLk6GJQsqaUBKTNV-0" />
        <mxCell id="WIyWlLk6GJQsqaUBKTNV-1" parent="WIyWlLk6GJQsqaUBKTNV-0" />
        <mxCell id="WIyWlLk6GJQsqaUBKTNV-2" value="" style="rounded=0;html=1;jettySize=auto;orthogonalLoop=1;fontSize=11;endArrow=block;endFill=0;endSize=8;strokeWidth=1;shadow=0;labelBackgroundColor=none;edgeStyle=orthogonalEdgeStyle;" parent="WIyWlLk6GJQsqaUBKTNV-1" source="WIyWlLk6GJQsqaUBKTNV-3" target="WIyWlLk6GJQsqaUBKTNV-6" edge="1">
          <mxGeometry relative="1" as="geometry" />
        </mxCell>
        <mxCell id="WIyWlLk6GJQsqaUBKTNV-3" value="AP&amp;nbsp;" style="rounded=1;whiteSpace=wrap;html=1;fontSize=12;glass=0;strokeWidth=1;shadow=0;" parent="WIyWlLk6GJQsqaUBKTNV-1" vertex="1">
          <mxGeometry x="40" y="290" width="120" height="40" as="geometry" />
        </mxCell>
        <mxCell id="WIyWlLk6GJQsqaUBKTNV-4" value="Yes" style="rounded=0;html=1;jettySize=auto;orthogonalLoop=1;fontSize=11;endArrow=block;endFill=0;endSize=8;strokeWidth=1;shadow=0;labelBackgroundColor=none;edgeStyle=orthogonalEdgeStyle;" parent="WIyWlLk6GJQsqaUBKTNV-1" source="WIyWlLk6GJQsqaUBKTNV-6" target="WIyWlLk6GJQsqaUBKTNV-10" edge="1">
          <mxGeometry y="20" relative="1" as="geometry">
            <mxPoint as="offset" />
          </mxGeometry>
        </mxCell>
        <mxCell id="WIyWlLk6GJQsqaUBKTNV-5" value="No" style="edgeStyle=orthogonalEdgeStyle;rounded=0;html=1;jettySize=auto;orthogonalLoop=1;fontSize=11;endArrow=block;endFill=0;endSize=8;strokeWidth=1;shadow=0;labelBackgroundColor=none;" parent="WIyWlLk6GJQsqaUBKTNV-1" source="WIyWlLk6GJQsqaUBKTNV-6" target="WIyWlLk6GJQsqaUBKTNV-7" edge="1">
          <mxGeometry y="10" relative="1" as="geometry">
            <mxPoint as="offset" />
          </mxGeometry>
        </mxCell>
        <mxCell id="WIyWlLk6GJQsqaUBKTNV-6" value="Lamp&lt;br&gt;plugged in?" style="rhombus;whiteSpace=wrap;html=1;shadow=0;fontFamily=Helvetica;fontSize=12;align=center;strokeWidth=1;spacing=6;spacingTop=-4;" parent="WIyWlLk6GJQsqaUBKTNV-1" vertex="1">
          <mxGeometry x="190" y="270" width="100" height="80" as="geometry" />
        </mxCell>
        <mxCell id="WIyWlLk6GJQsqaUBKTNV-7" value="Plug in lamp" style="rounded=1;whiteSpace=wrap;html=1;fontSize=12;glass=0;strokeWidth=1;shadow=0;" parent="WIyWlLk6GJQsqaUBKTNV-1" vertex="1">
          <mxGeometry x="340" y="290" width="120" height="40" as="geometry" />
        </mxCell>
        <mxCell id="WIyWlLk6GJQsqaUBKTNV-8" value="No" style="rounded=0;html=1;jettySize=auto;orthogonalLoop=1;fontSize=11;endArrow=block;endFill=0;endSize=8;strokeWidth=1;shadow=0;labelBackgroundColor=none;edgeStyle=orthogonalEdgeStyle;" parent="WIyWlLk6GJQsqaUBKTNV-1" source="WIyWlLk6GJQsqaUBKTNV-10" target="WIyWlLk6GJQsqaUBKTNV-11" edge="1">
          <mxGeometry x="0.3333" y="20" relative="1" as="geometry">
            <mxPoint as="offset" />
          </mxGeometry>
        </mxCell>
        <mxCell id="WIyWlLk6GJQsqaUBKTNV-9" value="Yes" style="edgeStyle=orthogonalEdgeStyle;rounded=0;html=1;jettySize=auto;orthogonalLoop=1;fontSize=11;endArrow=block;endFill=0;endSize=8;strokeWidth=1;shadow=0;labelBackgroundColor=none;" parent="WIyWlLk6GJQsqaUBKTNV-1" source="WIyWlLk6GJQsqaUBKTNV-10" target="WIyWlLk6GJQsqaUBKTNV-12" edge="1">
          <mxGeometry y="10" relative="1" as="geometry">
            <mxPoint as="offset" />
          </mxGeometry>
        </mxCell>
        <mxCell id="WIyWlLk6GJQsqaUBKTNV-10" value="Bulb&lt;br&gt;burned out?" style="rhombus;whiteSpace=wrap;html=1;shadow=0;fontFamily=Helvetica;fontSize=12;align=center;strokeWidth=1;spacing=6;spacingTop=-4;" parent="WIyWlLk6GJQsqaUBKTNV-1" vertex="1">
          <mxGeometry x="190" y="390" width="100" height="80" as="geometry" />
        </mxCell>
        <mxCell id="WIyWlLk6GJQsqaUBKTNV-11" value="Repair Lamp" style="rounded=1;whiteSpace=wrap;html=1;fontSize=12;glass=0;strokeWidth=1;shadow=0;" parent="WIyWlLk6GJQsqaUBKTNV-1" vertex="1">
          <mxGeometry x="560" y="410" width="120" height="40" as="geometry" />
        </mxCell>
        <mxCell id="WIyWlLk6GJQsqaUBKTNV-12" value="Replace Bulb" style="rounded=1;whiteSpace=wrap;html=1;fontSize=12;glass=0;strokeWidth=1;shadow=0;" parent="WIyWlLk6GJQsqaUBKTNV-1" vertex="1">
          <mxGeometry x="340" y="410" width="120" height="40" as="geometry" />
        </mxCell>
        <mxCell id="GWDULUozMpWC_BCIRvtk-0" value="" style="shape=ext;double=1;rounded=1;whiteSpace=wrap;html=1;" parent="WIyWlLk6GJQsqaUBKTNV-1" vertex="1">
          <mxGeometry x="120" y="719" width="500" height="361" as="geometry" />
        </mxCell>
        <mxCell id="GWDULUozMpWC_BCIRvtk-3" value="ISP" style="shape=ext;double=1;rounded=1;whiteSpace=wrap;html=1;flipV=0;" parent="WIyWlLk6GJQsqaUBKTNV-1" vertex="1">
          <mxGeometry x="160" y="740" width="110" height="40" as="geometry" />
        </mxCell>
        <mxCell id="GWDULUozMpWC_BCIRvtk-4" value="NPU/800M" style="shape=ext;double=1;rounded=1;whiteSpace=wrap;html=1;flipV=0;" parent="WIyWlLk6GJQsqaUBKTNV-1" vertex="1">
          <mxGeometry x="377" y="740" width="110" height="40" as="geometry" />
        </mxCell>
        <mxCell id="GWDULUozMpWC_BCIRvtk-5" value="AXI" style="shape=ext;double=1;rounded=1;whiteSpace=wrap;html=1;" parent="WIyWlLk6GJQsqaUBKTNV-1" vertex="1">
          <mxGeometry x="160" y="860" width="350" height="40" as="geometry" />
        </mxCell>
        <mxCell id="GWDULUozMpWC_BCIRvtk-6" value="" style="shape=doubleArrow;direction=south;whiteSpace=wrap;html=1;" parent="WIyWlLk6GJQsqaUBKTNV-1" vertex="1">
          <mxGeometry x="200" y="780" width="20" height="80" as="geometry" />
        </mxCell>
        <mxCell id="GWDULUozMpWC_BCIRvtk-7" value="" style="shape=doubleArrow;direction=south;whiteSpace=wrap;html=1;" parent="WIyWlLk6GJQsqaUBKTNV-1" vertex="1">
          <mxGeometry x="422" y="780" width="20" height="80" as="geometry" />
        </mxCell>
        <mxCell id="GWDULUozMpWC_BCIRvtk-8" value="DDR" style="shape=ext;double=1;rounded=0;whiteSpace=wrap;html=1;" parent="WIyWlLk6GJQsqaUBKTNV-1" vertex="1">
          <mxGeometry x="155" y="1100" width="400" height="40" as="geometry" />
        </mxCell>
        <mxCell id="GWDULUozMpWC_BCIRvtk-10" value="" style="line;strokeWidth=2;direction=south;html=1;rotation=-90;" parent="WIyWlLk6GJQsqaUBKTNV-1" vertex="1">
          <mxGeometry x="317.5" y="712.5" width="10" height="215" as="geometry" />
        </mxCell>
        <mxCell id="GWDULUozMpWC_BCIRvtk-12" value="" style="curved=1;endArrow=classic;html=1;" parent="WIyWlLk6GJQsqaUBKTNV-1" edge="1">
          <mxGeometry width="50" height="50" relative="1" as="geometry">
            <mxPoint x="290" y="820" as="sourcePoint" />
            <mxPoint x="350" y="650" as="targetPoint" />
            <Array as="points">
              <mxPoint x="340" y="820" />
              <mxPoint x="290" y="770" />
            </Array>
          </mxGeometry>
        </mxCell>
        <mxCell id="GWDULUozMpWC_BCIRvtk-13" value="12M(4000*3000)*12bit*40=5.6Gbps /write&lt;br&gt;3module=3*5.6=18G&lt;br&gt;32*bit*500M=16Gbps&lt;br&gt;&lt;br&gt;NPU: R/W&amp;nbsp; 64" style="ellipse;whiteSpace=wrap;html=1;" parent="WIyWlLk6GJQsqaUBKTNV-1" vertex="1">
          <mxGeometry x="90" y="500" width="620" height="150" as="geometry" />
        </mxCell>
        <mxCell id="GWDULUozMpWC_BCIRvtk-15" value="" style="shape=process;whiteSpace=wrap;html=1;backgroundOutline=1;rotation=90;" parent="WIyWlLk6GJQsqaUBKTNV-1" vertex="1">
          <mxGeometry x="615" y="115" width="190" height="60" as="geometry" />
        </mxCell>
        <mxCell id="GWDULUozMpWC_BCIRvtk-16" value="" style="endArrow=classic;startArrow=classic;html=1;" parent="WIyWlLk6GJQsqaUBKTNV-1" edge="1">
          <mxGeometry width="50" height="50" relative="1" as="geometry">
            <mxPoint x="520" y="80" as="sourcePoint" />
            <mxPoint x="680" y="80" as="targetPoint" />
            <Array as="points">
              <mxPoint x="610" y="80" />
            </Array>
          </mxGeometry>
        </mxCell>
        <mxCell id="GWDULUozMpWC_BCIRvtk-17" value="" style="shape=curlyBracket;whiteSpace=wrap;html=1;rounded=1;" parent="WIyWlLk6GJQsqaUBKTNV-1" vertex="1">
          <mxGeometry x="524" y="100" width="20" height="120" as="geometry" />
        </mxCell>
        <mxCell id="GWDULUozMpWC_BCIRvtk-18" value="" style="shape=curlyBracket;whiteSpace=wrap;html=1;rounded=1;flipH=1;" parent="WIyWlLk6GJQsqaUBKTNV-1" vertex="1">
          <mxGeometry x="653" y="100" width="20" height="120" as="geometry" />
        </mxCell>
        <mxCell id="GWDULUozMpWC_BCIRvtk-20" value="&lt;div style=&quot;text-align: left&quot;&gt;&lt;span&gt;1:&amp;nbsp; 解密，验签&lt;/span&gt;&lt;/div&gt;&lt;div style=&quot;text-align: left&quot;&gt;&lt;span&gt;2：模型解析&lt;/span&gt;&lt;/div&gt;&lt;div style=&quot;text-align: left&quot;&gt;&lt;span&gt;3：模型加载&lt;/span&gt;&lt;/div&gt;&lt;div style=&quot;text-align: left&quot;&gt;&lt;span&gt;4：配置设置NPU&lt;/span&gt;&lt;/div&gt;&lt;div style=&quot;text-align: left&quot;&gt;&lt;span&gt;5：输入输出&lt;/span&gt;&lt;/div&gt;" style="shape=ext;double=1;rounded=0;whiteSpace=wrap;html=1;" parent="WIyWlLk6GJQsqaUBKTNV-1" vertex="1">
          <mxGeometry x="538" y="110" width="120" height="90" as="geometry" />
        </mxCell>
        <mxCell id="GWDULUozMpWC_BCIRvtk-21" value="" style="shape=process;whiteSpace=wrap;html=1;backgroundOutline=1;rotation=90;" parent="WIyWlLk6GJQsqaUBKTNV-1" vertex="1">
          <mxGeometry x="390" y="115" width="190" height="60" as="geometry" />
        </mxCell>
        <mxCell id="rHONE3shHg6yAWBH-fY9-0" value="解密验签过程" style="rounded=1;whiteSpace=wrap;html=1;" parent="WIyWlLk6GJQsqaUBKTNV-1" vertex="1">
          <mxGeometry x="160" y="20" width="120" height="60" as="geometry" />
        </mxCell>
        <mxCell id="rHONE3shHg6yAWBH-fY9-1" value="芯片启动过程" style="rounded=1;whiteSpace=wrap;html=1;" parent="WIyWlLk6GJQsqaUBKTNV-1" vertex="1">
          <mxGeometry x="40" y="20" width="120" height="60" as="geometry" />
        </mxCell>
        <mxCell id="rHONE3shHg6yAWBH-fY9-2" value="NPU启动过程" style="rounded=1;whiteSpace=wrap;html=1;" parent="WIyWlLk6GJQsqaUBKTNV-1" vertex="1">
          <mxGeometry x="40" y="80" width="120" height="60" as="geometry" />
        </mxCell>
        <mxCell id="rHONE3shHg6yAWBH-fY9-3" value="输入输出" style="rounded=1;whiteSpace=wrap;html=1;" parent="WIyWlLk6GJQsqaUBKTNV-1" vertex="1">
          <mxGeometry x="160" y="80" width="120" height="60" as="geometry" />
        </mxCell>
        <mxCell id="IGrL_qeKg5-xkMg7fqGt-0" value="Sensor" style="rounded=1;whiteSpace=wrap;html=1;" parent="WIyWlLk6GJQsqaUBKTNV-1" vertex="1">
          <mxGeometry x="-10" y="750" width="70" height="30" as="geometry" />
        </mxCell>
        <mxCell id="IGrL_qeKg5-xkMg7fqGt-1" value="" style="shape=flexArrow;endArrow=classic;startArrow=classic;html=1;" parent="WIyWlLk6GJQsqaUBKTNV-1" edge="1">
          <mxGeometry width="100" height="100" relative="1" as="geometry">
            <mxPoint x="60" y="770" as="sourcePoint" />
            <mxPoint x="120" y="769.5" as="targetPoint" />
          </mxGeometry>
        </mxCell>
        <mxCell id="IGrL_qeKg5-xkMg7fqGt-2" value="MIPI RX X4" style="ellipse;shape=cloud;whiteSpace=wrap;html=1;" parent="WIyWlLk6GJQsqaUBKTNV-1" vertex="1">
          <mxGeometry y="660" width="120" height="80" as="geometry" />
        </mxCell>
        <mxCell id="IGrL_qeKg5-xkMg7fqGt-3" value="AP" style="rounded=1;whiteSpace=wrap;html=1;" parent="WIyWlLk6GJQsqaUBKTNV-1" vertex="1">
          <mxGeometry x="645" y="720" width="70" height="30" as="geometry" />
        </mxCell>
        <mxCell id="IGrL_qeKg5-xkMg7fqGt-4" value="" style="shape=flexArrow;endArrow=classic;startArrow=classic;html=1;" parent="WIyWlLk6GJQsqaUBKTNV-1" edge="1">
          <mxGeometry width="100" height="100" relative="1" as="geometry">
            <mxPoint x="580" y="730.5" as="sourcePoint" />
            <mxPoint x="640" y="730" as="targetPoint" />
          </mxGeometry>
        </mxCell>
        <mxCell id="IGrL_qeKg5-xkMg7fqGt-5" value="MIPI TX X4" style="ellipse;shape=cloud;whiteSpace=wrap;html=1;" parent="WIyWlLk6GJQsqaUBKTNV-1" vertex="1">
          <mxGeometry x="553" y="632.5" width="120" height="80" as="geometry" />
        </mxCell>
        <mxCell id="IGrL_qeKg5-xkMg7fqGt-6" value="AHB" style="shape=ext;double=1;rounded=1;whiteSpace=wrap;html=1;" parent="WIyWlLk6GJQsqaUBKTNV-1" vertex="1">
          <mxGeometry x="467.5" y="927.5" width="147.5" height="40" as="geometry" />
        </mxCell>
        <mxCell id="IGrL_qeKg5-xkMg7fqGt-7" value="APB" style="shape=ext;double=1;rounded=1;whiteSpace=wrap;html=1;" parent="WIyWlLk6GJQsqaUBKTNV-1" vertex="1">
          <mxGeometry x="120" y="927.5" width="146" height="40" as="geometry" />
        </mxCell>
        <mxCell id="IGrL_qeKg5-xkMg7fqGt-9" value="SDIO" style="rounded=1;whiteSpace=wrap;html=1;" parent="WIyWlLk6GJQsqaUBKTNV-1" vertex="1">
          <mxGeometry x="545" y="865" width="70" height="30" as="geometry" />
        </mxCell>
        <mxCell id="IGrL_qeKg5-xkMg7fqGt-10" value="" style="endArrow=classic;startArrow=classic;html=1;" parent="WIyWlLk6GJQsqaUBKTNV-1" edge="1">
          <mxGeometry width="50" height="50" relative="1" as="geometry">
            <mxPoint x="570" y="925" as="sourcePoint" />
            <mxPoint x="570" y="892.5" as="targetPoint" />
          </mxGeometry>
        </mxCell>
        <mxCell id="IGrL_qeKg5-xkMg7fqGt-12" value="" style="endArrow=classic;html=1;" parent="WIyWlLk6GJQsqaUBKTNV-1" edge="1">
          <mxGeometry width="50" height="50" relative="1" as="geometry">
            <mxPoint x="500" y="920" as="sourcePoint" />
            <mxPoint x="500" y="900" as="targetPoint" />
          </mxGeometry>
        </mxCell>
        <mxCell id="IGrL_qeKg5-xkMg7fqGt-13" value="" style="endArrow=classic;html=1;" parent="WIyWlLk6GJQsqaUBKTNV-1" edge="1">
          <mxGeometry width="50" height="50" relative="1" as="geometry">
            <mxPoint x="480" y="900" as="sourcePoint" />
            <mxPoint x="480" y="930" as="targetPoint" />
          </mxGeometry>
        </mxCell>
        <mxCell id="IGrL_qeKg5-xkMg7fqGt-15" value="S" style="text;html=1;strokeColor=none;fillColor=none;align=center;verticalAlign=middle;whiteSpace=wrap;rounded=1;" parent="WIyWlLk6GJQsqaUBKTNV-1" vertex="1">
          <mxGeometry x="460" y="880" width="40" height="20" as="geometry" />
        </mxCell>
        <mxCell id="IGrL_qeKg5-xkMg7fqGt-16" value="M" style="text;html=1;strokeColor=none;fillColor=none;align=center;verticalAlign=middle;whiteSpace=wrap;rounded=1;" parent="WIyWlLk6GJQsqaUBKTNV-1" vertex="1">
          <mxGeometry x="480" y="880" width="40" height="20" as="geometry" />
        </mxCell>
        <mxCell id="IGrL_qeKg5-xkMg7fqGt-17" value="M" style="text;html=1;strokeColor=none;fillColor=none;align=center;verticalAlign=middle;whiteSpace=wrap;rounded=1;" parent="WIyWlLk6GJQsqaUBKTNV-1" vertex="1">
          <mxGeometry x="470" y="937.5" width="40" height="20" as="geometry" />
        </mxCell>
        <mxCell id="IGrL_qeKg5-xkMg7fqGt-18" value="" style="endArrow=classic;html=1;entryX=0.522;entryY=-0.083;entryDx=0;entryDy=0;entryPerimeter=0;exitX=0.581;exitY=0.937;exitDx=0;exitDy=0;exitPerimeter=0;" parent="WIyWlLk6GJQsqaUBKTNV-1" source="IGrL_qeKg5-xkMg7fqGt-19" target="GWDULUozMpWC_BCIRvtk-8" edge="1">
          <mxGeometry width="50" height="50" relative="1" as="geometry">
            <mxPoint x="366" y="905" as="sourcePoint" />
            <mxPoint x="366" y="1015" as="targetPoint" />
            <Array as="points" />
          </mxGeometry>
        </mxCell>
        <mxCell id="IGrL_qeKg5-xkMg7fqGt-19" value="&lt;span&gt;DDR_CTR/LPDDR 16BitX256MX&lt;/span&gt;" style="rounded=1;whiteSpace=wrap;html=1;" parent="WIyWlLk6GJQsqaUBKTNV-1" vertex="1">
          <mxGeometry x="294" y="927.5" width="120" height="42.5" as="geometry" />
        </mxCell>
        <mxCell id="IGrL_qeKg5-xkMg7fqGt-20" value="" style="endArrow=classic;html=1;" parent="WIyWlLk6GJQsqaUBKTNV-1" edge="1">
          <mxGeometry width="50" height="50" relative="1" as="geometry">
            <mxPoint x="350" y="897.5" as="sourcePoint" />
            <mxPoint x="350" y="927.5" as="targetPoint" />
          </mxGeometry>
        </mxCell>
        <mxCell id="WBc0R5OP1oCIVcgwW8ig-0" value="Linux PCIE驱动程序模型" style="rounded=1;whiteSpace=wrap;html=1;" vertex="1" parent="WIyWlLk6GJQsqaUBKTNV-1">
          <mxGeometry x="-680" y="200" width="430" height="80" as="geometry" />
        </mxCell>
        <mxCell id="WBc0R5OP1oCIVcgwW8ig-1" value="Device" style="rounded=1;whiteSpace=wrap;html=1;" vertex="1" parent="WIyWlLk6GJQsqaUBKTNV-1">
          <mxGeometry x="-680" y="370" width="120" height="60" as="geometry" />
        </mxCell>
        <mxCell id="WBc0R5OP1oCIVcgwW8ig-2" value="Driver" style="rounded=1;whiteSpace=wrap;html=1;" vertex="1" parent="WIyWlLk6GJQsqaUBKTNV-1">
          <mxGeometry x="-290" y="370" width="120" height="60" as="geometry" />
        </mxCell>
        <mxCell id="WBc0R5OP1oCIVcgwW8ig-3" value="" style="shape=flexArrow;endArrow=classic;startArrow=classic;html=1;width=49.411764705882355;endSize=7.8;" edge="1" parent="WIyWlLk6GJQsqaUBKTNV-1">
          <mxGeometry width="100" height="100" relative="1" as="geometry">
            <mxPoint x="-520" y="399.40999999999997" as="sourcePoint" />
            <mxPoint x="-330" y="399" as="targetPoint" />
            <Array as="points">
              <mxPoint x="-450" y="399.40999999999997" />
            </Array>
          </mxGeometry>
        </mxCell>
        <mxCell id="WBc0R5OP1oCIVcgwW8ig-4" value="bus_Match name" style="text;html=1;strokeColor=none;fillColor=none;align=center;verticalAlign=middle;whiteSpace=wrap;rounded=0;" vertex="1" parent="WIyWlLk6GJQsqaUBKTNV-1">
          <mxGeometry x="-480" y="320" width="110" height="40" as="geometry" />
        </mxCell>
        <mxCell id="WBc0R5OP1oCIVcgwW8ig-5" value="&lt;p style=&quot;box-sizing: border-box ; outline: 0px ; margin: 10px auto ; padding: 0px ; font-size: 18px ; color: rgb(77 , 77 , 77) ; overflow: auto hidden ; line-height: 1.5 ; overflow-wrap: break-word ; font-family: &amp;#34;verdana&amp;#34; , &amp;#34;arial&amp;#34; , &amp;#34;helvetica&amp;#34; , sans-serif ; background-color: rgb(254 , 254 , 242)&quot;&gt;platform_driver_register——&amp;gt;driver_register&lt;/p&gt;&lt;p style=&quot;box-sizing: border-box ; outline: 0px ; margin: 10px auto ; padding: 0px ; font-size: 18px ; color: rgb(77 , 77 , 77) ; overflow: auto hidden ; line-height: 1.5 ; overflow-wrap: break-word ; font-family: &amp;#34;verdana&amp;#34; , &amp;#34;arial&amp;#34; , &amp;#34;helvetica&amp;#34; , sans-serif ; background-color: rgb(254 , 254 , 242)&quot;&gt;——&amp;gt;bus_add_driver——&amp;gt;driver_attach——&amp;gt;bus_for_each_dev——&amp;gt;__driver_attach&lt;/p&gt;&lt;p style=&quot;box-sizing: border-box ; outline: 0px ; margin: 10px auto ; padding: 0px ; font-size: 18px ; color: rgb(77 , 77 , 77) ; overflow: auto hidden ; line-height: 1.5 ; overflow-wrap: break-word ; font-family: &amp;#34;verdana&amp;#34; , &amp;#34;arial&amp;#34; , &amp;#34;helvetica&amp;#34; , sans-serif ; background-color: rgb(254 , 254 , 242)&quot;&gt;——&amp;gt;driver_probe_device——&amp;gt;really_probe&lt;/p&gt;&lt;p style=&quot;box-sizing: border-box ; outline: 0px ; margin: 10px auto ; padding: 0px ; font-size: 18px ; color: rgb(77 , 77 , 77) ; overflow: auto hidden ; line-height: 1.5 ; overflow-wrap: break-word ; font-family: &amp;#34;verdana&amp;#34; , &amp;#34;arial&amp;#34; , &amp;#34;helvetica&amp;#34; , sans-serif ; background-color: rgb(254 , 254 , 242)&quot;&gt;——&amp;gt;drv-&amp;gt;probe——&amp;gt;int (*probe) (struct device *dev)(这个函数指针就指向我们真正填写的device+driver下的probe)&lt;/p&gt;&lt;div&gt;&lt;br&gt;&lt;/div&gt;" style="rounded=1;whiteSpace=wrap;html=1;align=left;" vertex="1" parent="WIyWlLk6GJQsqaUBKTNV-1">
          <mxGeometry x="-715" y="570" width="580" height="162.5" as="geometry" />
        </mxCell>
      </root>
    </mxGraphModel>
  </diagram>
</mxfile>
